<svg width="590" height="594" viewBox="0 0 590 594" fill="none" xmlns="http://www.w3.org/2000/svg">
<path d="M348.574 4.5121C290.725 -5.68818 231.151 1.49473 177.384 25.1525C123.618 48.8102 78.0743 87.8803 46.5128 137.422C14.9512 186.964 -1.21074 244.752 0.070677 303.479C1.3521 362.206 20.0193 419.234 53.7118 467.352C87.4043 515.47 134.609 552.516 189.356 573.806C244.103 595.096 303.934 599.674 361.282 586.96C418.631 574.246 470.922 544.812 511.542 502.379C552.162 459.947 579.288 406.422 589.488 348.574L501.742 333.102C494.601 373.596 475.614 411.063 447.179 440.766C418.745 470.468 382.142 491.072 341.998 499.972C301.854 508.872 259.972 505.667 221.649 490.764C183.326 475.861 150.283 449.929 126.698 416.247C103.114 382.564 90.0465 342.644 89.1495 301.535C88.2525 260.426 99.5659 219.975 121.659 185.295C143.752 150.616 175.633 123.267 213.269 106.707C250.905 90.1463 292.607 85.1183 333.101 92.2585L348.574 4.5121Z" fill="#84AEEE"/>
</svg>
